<mxfile host="app.diagrams.net" agent="Mozilla/5.0 (Windows NT 10.0; Win64; x64) AppleWebKit/537.36 (KHTML, like Gecko) Chrome/132.0.0.0 YaBrowser/25.2.0.0 Safari/537.36" version="26.1.3">
  <diagram name="Страница — 1" id="amF-am83SkAzd4kvtOPK">
    <mxGraphModel dx="2131" dy="697" grid="1" gridSize="10" guides="1" tooltips="1" connect="1" arrows="1" fold="1" page="1" pageScale="1" pageWidth="827" pageHeight="1169" math="0" shadow="0">
      <root>
        <mxCell id="0" />
        <mxCell id="1" parent="0" />
        <mxCell id="wi-MPwObM99fJ2iADO0O-1" value="Игрок" style="shape=umlActor;verticalLabelPosition=bottom;verticalAlign=top;html=1;outlineConnect=0;" parent="1" vertex="1">
          <mxGeometry x="-10" y="220" width="30" height="60" as="geometry" />
        </mxCell>
        <mxCell id="wi-MPwObM99fJ2iADO0O-2" value="Навык" style="rounded=0;whiteSpace=wrap;html=1;" parent="1" vertex="1">
          <mxGeometry x="-220" y="220" width="120" height="60" as="geometry" />
        </mxCell>
        <mxCell id="wi-MPwObM99fJ2iADO0O-4" value="Объекты" style="rounded=0;whiteSpace=wrap;html=1;" parent="1" vertex="1">
          <mxGeometry x="270" y="220" width="120" height="60" as="geometry" />
        </mxCell>
        <mxCell id="wi-MPwObM99fJ2iADO0O-5" value="Локация" style="rounded=0;whiteSpace=wrap;html=1;" parent="1" vertex="1">
          <mxGeometry x="480" y="220" width="120" height="60" as="geometry" />
        </mxCell>
        <mxCell id="wi-MPwObM99fJ2iADO0O-6" value="Враг" style="shape=umlActor;verticalLabelPosition=bottom;verticalAlign=top;html=1;outlineConnect=0;" parent="1" vertex="1">
          <mxGeometry x="690" y="220" width="30" height="60" as="geometry" />
        </mxCell>
        <mxCell id="wi-MPwObM99fJ2iADO0O-7" value="Не игровой персонаж" style="shape=umlActor;verticalLabelPosition=bottom;verticalAlign=top;html=1;outlineConnect=0;" parent="1" vertex="1">
          <mxGeometry x="150" y="220" width="30" height="60" as="geometry" />
        </mxCell>
        <mxCell id="wi-MPwObM99fJ2iADO0O-10" value="" style="endArrow=none;dashed=1;html=1;dashPattern=1 3;strokeWidth=2;rounded=0;" parent="1" target="wi-MPwObM99fJ2iADO0O-1" edge="1">
          <mxGeometry width="50" height="50" relative="1" as="geometry">
            <mxPoint x="5" y="970" as="sourcePoint" />
            <mxPoint x="-10" y="410" as="targetPoint" />
          </mxGeometry>
        </mxCell>
        <mxCell id="wi-MPwObM99fJ2iADO0O-12" value="" style="endArrow=none;dashed=1;html=1;dashPattern=1 3;strokeWidth=2;rounded=0;" parent="1" source="wi-MPwObM99fJ2iADO0O-19" edge="1">
          <mxGeometry width="50" height="50" relative="1" as="geometry">
            <mxPoint x="-160.53" y="970" as="sourcePoint" />
            <mxPoint x="-160.53" y="280" as="targetPoint" />
          </mxGeometry>
        </mxCell>
        <mxCell id="wi-MPwObM99fJ2iADO0O-13" value="" style="endArrow=none;dashed=1;html=1;dashPattern=1 3;strokeWidth=2;rounded=0;" parent="1" source="wi-MPwObM99fJ2iADO0O-30" edge="1">
          <mxGeometry width="50" height="50" relative="1" as="geometry">
            <mxPoint x="164.47" y="970" as="sourcePoint" />
            <mxPoint x="164.47" y="280" as="targetPoint" />
          </mxGeometry>
        </mxCell>
        <mxCell id="wi-MPwObM99fJ2iADO0O-14" value="" style="endArrow=none;dashed=1;html=1;dashPattern=1 3;strokeWidth=2;rounded=0;" parent="1" source="wi-MPwObM99fJ2iADO0O-26" edge="1">
          <mxGeometry width="50" height="50" relative="1" as="geometry">
            <mxPoint x="329.47" y="970" as="sourcePoint" />
            <mxPoint x="329.47" y="280" as="targetPoint" />
          </mxGeometry>
        </mxCell>
        <mxCell id="wi-MPwObM99fJ2iADO0O-15" value="" style="endArrow=none;dashed=1;html=1;dashPattern=1 3;strokeWidth=2;rounded=0;" parent="1" edge="1">
          <mxGeometry width="50" height="50" relative="1" as="geometry">
            <mxPoint x="539.47" y="970" as="sourcePoint" />
            <mxPoint x="539.47" y="280" as="targetPoint" />
          </mxGeometry>
        </mxCell>
        <mxCell id="wi-MPwObM99fJ2iADO0O-16" value="" style="endArrow=none;dashed=1;html=1;dashPattern=1 3;strokeWidth=2;rounded=0;" parent="1" source="wi-MPwObM99fJ2iADO0O-41" edge="1">
          <mxGeometry width="50" height="50" relative="1" as="geometry">
            <mxPoint x="704.47" y="970" as="sourcePoint" />
            <mxPoint x="704.47" y="280" as="targetPoint" />
          </mxGeometry>
        </mxCell>
        <mxCell id="wi-MPwObM99fJ2iADO0O-18" value="" style="rounded=0;whiteSpace=wrap;html=1;" parent="1" vertex="1">
          <mxGeometry y="320" width="10" height="480" as="geometry" />
        </mxCell>
        <mxCell id="wi-MPwObM99fJ2iADO0O-20" value="" style="endArrow=none;dashed=1;html=1;dashPattern=1 3;strokeWidth=2;rounded=0;" parent="1" target="wi-MPwObM99fJ2iADO0O-19" edge="1">
          <mxGeometry width="50" height="50" relative="1" as="geometry">
            <mxPoint x="-160.53" y="970" as="sourcePoint" />
            <mxPoint x="-160.53" y="280" as="targetPoint" />
          </mxGeometry>
        </mxCell>
        <mxCell id="wi-MPwObM99fJ2iADO0O-19" value="" style="rounded=0;whiteSpace=wrap;html=1;" parent="1" vertex="1">
          <mxGeometry x="-165" y="310" width="10" height="320" as="geometry" />
        </mxCell>
        <mxCell id="wi-MPwObM99fJ2iADO0O-21" value="" style="endArrow=classic;html=1;rounded=0;exitX=-0.218;exitY=0.037;exitDx=0;exitDy=0;entryX=1.042;entryY=0.095;entryDx=0;entryDy=0;entryPerimeter=0;exitPerimeter=0;" parent="1" source="wi-MPwObM99fJ2iADO0O-18" target="wi-MPwObM99fJ2iADO0O-19" edge="1">
          <mxGeometry width="50" height="50" relative="1" as="geometry">
            <mxPoint x="-200" y="400" as="sourcePoint" />
            <mxPoint x="-150" y="344" as="targetPoint" />
          </mxGeometry>
        </mxCell>
        <mxCell id="wi-MPwObM99fJ2iADO0O-22" value="Получить" style="edgeLabel;html=1;align=center;verticalAlign=middle;resizable=0;points=[];" parent="wi-MPwObM99fJ2iADO0O-21" vertex="1" connectable="0">
          <mxGeometry x="-0.6074" y="3" relative="1" as="geometry">
            <mxPoint x="-50" y="-12" as="offset" />
          </mxGeometry>
        </mxCell>
        <mxCell id="wi-MPwObM99fJ2iADO0O-23" value="" style="rounded=0;whiteSpace=wrap;html=1;" parent="1" vertex="1">
          <mxGeometry x="160" y="330" width="10" height="70" as="geometry" />
        </mxCell>
        <mxCell id="wi-MPwObM99fJ2iADO0O-24" value="" style="endArrow=classic;html=1;rounded=0;exitX=1.253;exitY=0.071;exitDx=0;exitDy=0;entryX=-0.178;entryY=0.344;entryDx=0;entryDy=0;entryPerimeter=0;exitPerimeter=0;" parent="1" source="wi-MPwObM99fJ2iADO0O-18" target="wi-MPwObM99fJ2iADO0O-23" edge="1">
          <mxGeometry width="50" height="50" relative="1" as="geometry">
            <mxPoint x="20" y="400" as="sourcePoint" />
            <mxPoint x="70" y="350" as="targetPoint" />
          </mxGeometry>
        </mxCell>
        <mxCell id="wi-MPwObM99fJ2iADO0O-25" value="Получить задание" style="edgeLabel;html=1;align=center;verticalAlign=middle;resizable=0;points=[];" parent="wi-MPwObM99fJ2iADO0O-24" vertex="1" connectable="0">
          <mxGeometry x="-0.1392" y="2" relative="1" as="geometry">
            <mxPoint x="6" y="-13" as="offset" />
          </mxGeometry>
        </mxCell>
        <mxCell id="wi-MPwObM99fJ2iADO0O-27" value="" style="endArrow=none;dashed=1;html=1;dashPattern=1 3;strokeWidth=2;rounded=0;" parent="1" target="wi-MPwObM99fJ2iADO0O-26" edge="1">
          <mxGeometry width="50" height="50" relative="1" as="geometry">
            <mxPoint x="329.47" y="970" as="sourcePoint" />
            <mxPoint x="329.47" y="280" as="targetPoint" />
          </mxGeometry>
        </mxCell>
        <mxCell id="wi-MPwObM99fJ2iADO0O-26" value="" style="rounded=0;whiteSpace=wrap;html=1;" parent="1" vertex="1">
          <mxGeometry x="325" y="390" width="10" height="70" as="geometry" />
        </mxCell>
        <mxCell id="wi-MPwObM99fJ2iADO0O-28" value="" style="endArrow=classic;html=1;rounded=0;exitX=1.253;exitY=0.071;exitDx=0;exitDy=0;entryX=-0.012;entryY=0.414;entryDx=0;entryDy=0;entryPerimeter=0;exitPerimeter=0;" parent="1" target="wi-MPwObM99fJ2iADO0O-26" edge="1">
          <mxGeometry width="50" height="50" relative="1" as="geometry">
            <mxPoint x="10" y="420" as="sourcePoint" />
            <mxPoint x="155" y="420" as="targetPoint" />
          </mxGeometry>
        </mxCell>
        <mxCell id="wi-MPwObM99fJ2iADO0O-29" value="Собрать объекты в свой инвентарь" style="edgeLabel;html=1;align=center;verticalAlign=middle;resizable=0;points=[];" parent="wi-MPwObM99fJ2iADO0O-28" vertex="1" connectable="0">
          <mxGeometry x="-0.1392" y="2" relative="1" as="geometry">
            <mxPoint x="-5" y="-8" as="offset" />
          </mxGeometry>
        </mxCell>
        <mxCell id="wi-MPwObM99fJ2iADO0O-31" value="" style="endArrow=none;dashed=1;html=1;dashPattern=1 3;strokeWidth=2;rounded=0;" parent="1" source="wi-MPwObM99fJ2iADO0O-47" target="wi-MPwObM99fJ2iADO0O-30" edge="1">
          <mxGeometry width="50" height="50" relative="1" as="geometry">
            <mxPoint x="164.47" y="970" as="sourcePoint" />
            <mxPoint x="164.47" y="280" as="targetPoint" />
          </mxGeometry>
        </mxCell>
        <mxCell id="wi-MPwObM99fJ2iADO0O-30" value="" style="rounded=0;whiteSpace=wrap;html=1;" parent="1" vertex="1">
          <mxGeometry x="160" y="440" width="10" height="70" as="geometry" />
        </mxCell>
        <mxCell id="wi-MPwObM99fJ2iADO0O-32" value="" style="endArrow=classic;html=1;rounded=0;exitX=-0.161;exitY=0.825;exitDx=0;exitDy=0;entryX=1.005;entryY=0.131;entryDx=0;entryDy=0;entryPerimeter=0;exitPerimeter=0;" parent="1" source="wi-MPwObM99fJ2iADO0O-26" target="wi-MPwObM99fJ2iADO0O-30" edge="1">
          <mxGeometry width="50" height="50" relative="1" as="geometry">
            <mxPoint x="20" y="430" as="sourcePoint" />
            <mxPoint x="335" y="429" as="targetPoint" />
          </mxGeometry>
        </mxCell>
        <mxCell id="wi-MPwObM99fJ2iADO0O-33" value="Отдать собранные объекты" style="edgeLabel;html=1;align=center;verticalAlign=middle;resizable=0;points=[];" parent="wi-MPwObM99fJ2iADO0O-32" vertex="1" connectable="0">
          <mxGeometry x="-0.1392" y="2" relative="1" as="geometry">
            <mxPoint x="-7" y="-11" as="offset" />
          </mxGeometry>
        </mxCell>
        <mxCell id="wi-MPwObM99fJ2iADO0O-34" value="" style="endArrow=classic;html=1;rounded=0;exitX=-0.161;exitY=0.825;exitDx=0;exitDy=0;exitPerimeter=0;" parent="1" edge="1">
          <mxGeometry width="50" height="50" relative="1" as="geometry">
            <mxPoint x="160" y="459" as="sourcePoint" />
            <mxPoint x="10" y="460" as="targetPoint" />
          </mxGeometry>
        </mxCell>
        <mxCell id="wi-MPwObM99fJ2iADO0O-35" value="Получить награду" style="edgeLabel;html=1;align=center;verticalAlign=middle;resizable=0;points=[];" parent="wi-MPwObM99fJ2iADO0O-34" vertex="1" connectable="0">
          <mxGeometry x="-0.1392" y="2" relative="1" as="geometry">
            <mxPoint x="-7" y="-11" as="offset" />
          </mxGeometry>
        </mxCell>
        <mxCell id="wi-MPwObM99fJ2iADO0O-36" value="" style="endArrow=classic;html=1;rounded=0;exitX=1.009;exitY=0.36;exitDx=0;exitDy=0;exitPerimeter=0;entryX=0;entryY=0.75;entryDx=0;entryDy=0;" parent="1" source="wi-MPwObM99fJ2iADO0O-18" target="wi-MPwObM99fJ2iADO0O-30" edge="1">
          <mxGeometry width="50" height="50" relative="1" as="geometry">
            <mxPoint x="180" y="520" as="sourcePoint" />
            <mxPoint x="30" y="521" as="targetPoint" />
          </mxGeometry>
        </mxCell>
        <mxCell id="wi-MPwObM99fJ2iADO0O-37" value="Получить задание" style="edgeLabel;html=1;align=center;verticalAlign=middle;resizable=0;points=[];" parent="wi-MPwObM99fJ2iADO0O-36" vertex="1" connectable="0">
          <mxGeometry x="-0.1392" y="2" relative="1" as="geometry">
            <mxPoint x="6" y="-11" as="offset" />
          </mxGeometry>
        </mxCell>
        <mxCell id="wi-MPwObM99fJ2iADO0O-38" value="" style="rounded=0;whiteSpace=wrap;html=1;" parent="1" vertex="1">
          <mxGeometry x="535" y="470" width="10" height="100" as="geometry" />
        </mxCell>
        <mxCell id="wi-MPwObM99fJ2iADO0O-39" value="" style="endArrow=classic;html=1;rounded=0;entryX=-0.312;entryY=0.298;entryDx=0;entryDy=0;entryPerimeter=0;exitX=0.726;exitY=0.844;exitDx=0;exitDy=0;exitPerimeter=0;" parent="1" source="wi-MPwObM99fJ2iADO0O-30" target="wi-MPwObM99fJ2iADO0O-38" edge="1">
          <mxGeometry width="50" height="50" relative="1" as="geometry">
            <mxPoint x="170" y="503" as="sourcePoint" />
            <mxPoint x="170" y="503" as="targetPoint" />
          </mxGeometry>
        </mxCell>
        <mxCell id="wi-MPwObM99fJ2iADO0O-40" value="Сменить локацию" style="edgeLabel;html=1;align=center;verticalAlign=middle;resizable=0;points=[];" parent="wi-MPwObM99fJ2iADO0O-39" vertex="1" connectable="0">
          <mxGeometry x="-0.1392" y="2" relative="1" as="geometry">
            <mxPoint x="6" y="-11" as="offset" />
          </mxGeometry>
        </mxCell>
        <mxCell id="wi-MPwObM99fJ2iADO0O-42" value="" style="endArrow=none;dashed=1;html=1;dashPattern=1 3;strokeWidth=2;rounded=0;" parent="1" target="wi-MPwObM99fJ2iADO0O-41" edge="1" source="46k6uRibsO8c0PCUIlP4-3">
          <mxGeometry width="50" height="50" relative="1" as="geometry">
            <mxPoint x="704.47" y="970" as="sourcePoint" />
            <mxPoint x="704.47" y="280" as="targetPoint" />
          </mxGeometry>
        </mxCell>
        <mxCell id="wi-MPwObM99fJ2iADO0O-41" value="" style="rounded=0;whiteSpace=wrap;html=1;" parent="1" vertex="1">
          <mxGeometry x="700" y="490" width="10" height="70" as="geometry" />
        </mxCell>
        <mxCell id="wi-MPwObM99fJ2iADO0O-43" value="" style="endArrow=classic;html=1;rounded=0;entryX=0;entryY=0.25;entryDx=0;entryDy=0;exitX=1;exitY=0.384;exitDx=0;exitDy=0;exitPerimeter=0;" parent="1" source="wi-MPwObM99fJ2iADO0O-38" target="wi-MPwObM99fJ2iADO0O-41" edge="1">
          <mxGeometry width="50" height="50" relative="1" as="geometry">
            <mxPoint x="550" y="509" as="sourcePoint" />
            <mxPoint x="543" y="508" as="targetPoint" />
          </mxGeometry>
        </mxCell>
        <mxCell id="wi-MPwObM99fJ2iADO0O-44" value="Убить врага" style="edgeLabel;html=1;align=center;verticalAlign=middle;resizable=0;points=[];" parent="wi-MPwObM99fJ2iADO0O-43" vertex="1" connectable="0">
          <mxGeometry x="-0.1392" y="2" relative="1" as="geometry">
            <mxPoint x="6" y="-11" as="offset" />
          </mxGeometry>
        </mxCell>
        <mxCell id="wi-MPwObM99fJ2iADO0O-45" value="" style="endArrow=classic;html=1;rounded=0;entryX=0.961;entryY=0.656;entryDx=0;entryDy=0;exitX=-0.194;exitY=0.624;exitDx=0;exitDy=0;exitPerimeter=0;entryPerimeter=0;" parent="1" source="wi-MPwObM99fJ2iADO0O-41" target="wi-MPwObM99fJ2iADO0O-38" edge="1">
          <mxGeometry width="50" height="50" relative="1" as="geometry">
            <mxPoint x="555" y="519" as="sourcePoint" />
            <mxPoint x="710" y="518" as="targetPoint" />
          </mxGeometry>
        </mxCell>
        <mxCell id="wi-MPwObM99fJ2iADO0O-46" value="Сменить локацию" style="edgeLabel;html=1;align=center;verticalAlign=middle;resizable=0;points=[];" parent="wi-MPwObM99fJ2iADO0O-45" vertex="1" connectable="0">
          <mxGeometry x="-0.1392" y="2" relative="1" as="geometry">
            <mxPoint x="6" y="-11" as="offset" />
          </mxGeometry>
        </mxCell>
        <mxCell id="wi-MPwObM99fJ2iADO0O-48" value="" style="endArrow=none;dashed=1;html=1;dashPattern=1 3;strokeWidth=2;rounded=0;" parent="1" target="wi-MPwObM99fJ2iADO0O-47" edge="1">
          <mxGeometry width="50" height="50" relative="1" as="geometry">
            <mxPoint x="164.47" y="970" as="sourcePoint" />
            <mxPoint x="165" y="510" as="targetPoint" />
          </mxGeometry>
        </mxCell>
        <mxCell id="wi-MPwObM99fJ2iADO0O-47" value="" style="rounded=0;whiteSpace=wrap;html=1;" parent="1" vertex="1">
          <mxGeometry x="160" y="530" width="10" height="80" as="geometry" />
        </mxCell>
        <mxCell id="wi-MPwObM99fJ2iADO0O-49" value="" style="endArrow=classic;html=1;rounded=0;entryX=1;entryY=0.25;entryDx=0;entryDy=0;exitX=0;exitY=0.803;exitDx=0;exitDy=0;exitPerimeter=0;" parent="1" source="wi-MPwObM99fJ2iADO0O-38" target="wi-MPwObM99fJ2iADO0O-47" edge="1">
          <mxGeometry width="50" height="50" relative="1" as="geometry">
            <mxPoint x="510" y="545" as="sourcePoint" />
            <mxPoint x="310" y="545" as="targetPoint" />
          </mxGeometry>
        </mxCell>
        <mxCell id="wi-MPwObM99fJ2iADO0O-50" value="Сменить локацию" style="edgeLabel;html=1;align=center;verticalAlign=middle;resizable=0;points=[];" parent="wi-MPwObM99fJ2iADO0O-49" vertex="1" connectable="0">
          <mxGeometry x="-0.1392" y="2" relative="1" as="geometry">
            <mxPoint x="6" y="-11" as="offset" />
          </mxGeometry>
        </mxCell>
        <mxCell id="wi-MPwObM99fJ2iADO0O-52" value="" style="endArrow=classic;html=1;rounded=0;exitX=-0.161;exitY=0.825;exitDx=0;exitDy=0;exitPerimeter=0;" parent="1" edge="1">
          <mxGeometry width="50" height="50" relative="1" as="geometry">
            <mxPoint x="160" y="560" as="sourcePoint" />
            <mxPoint x="10" y="561" as="targetPoint" />
          </mxGeometry>
        </mxCell>
        <mxCell id="wi-MPwObM99fJ2iADO0O-53" value="Получить награду" style="edgeLabel;html=1;align=center;verticalAlign=middle;resizable=0;points=[];" parent="wi-MPwObM99fJ2iADO0O-52" vertex="1" connectable="0">
          <mxGeometry x="-0.1392" y="2" relative="1" as="geometry">
            <mxPoint x="-7" y="-11" as="offset" />
          </mxGeometry>
        </mxCell>
        <mxCell id="wi-MPwObM99fJ2iADO0O-54" value="" style="endArrow=classic;html=1;rounded=0;exitX=-0.218;exitY=0.037;exitDx=0;exitDy=0;entryX=1.042;entryY=0.095;entryDx=0;entryDy=0;entryPerimeter=0;exitPerimeter=0;" parent="1" edge="1">
          <mxGeometry width="50" height="50" relative="1" as="geometry">
            <mxPoint y="474" as="sourcePoint" />
            <mxPoint x="-153" y="476" as="targetPoint" />
          </mxGeometry>
        </mxCell>
        <mxCell id="wi-MPwObM99fJ2iADO0O-55" value="Получить" style="edgeLabel;html=1;align=center;verticalAlign=middle;resizable=0;points=[];" parent="wi-MPwObM99fJ2iADO0O-54" vertex="1" connectable="0">
          <mxGeometry x="-0.6074" y="3" relative="1" as="geometry">
            <mxPoint x="-50" y="-12" as="offset" />
          </mxGeometry>
        </mxCell>
        <mxCell id="wi-MPwObM99fJ2iADO0O-56" value="" style="endArrow=classic;html=1;rounded=0;exitX=-0.218;exitY=0.037;exitDx=0;exitDy=0;entryX=1.042;entryY=0.095;entryDx=0;entryDy=0;entryPerimeter=0;exitPerimeter=0;" parent="1" edge="1">
          <mxGeometry width="50" height="50" relative="1" as="geometry">
            <mxPoint x="-2" y="590" as="sourcePoint" />
            <mxPoint x="-155" y="592" as="targetPoint" />
          </mxGeometry>
        </mxCell>
        <mxCell id="wi-MPwObM99fJ2iADO0O-57" value="Получить" style="edgeLabel;html=1;align=center;verticalAlign=middle;resizable=0;points=[];" parent="wi-MPwObM99fJ2iADO0O-56" vertex="1" connectable="0">
          <mxGeometry x="-0.6074" y="3" relative="1" as="geometry">
            <mxPoint x="-50" y="-12" as="offset" />
          </mxGeometry>
        </mxCell>
        <mxCell id="46k6uRibsO8c0PCUIlP4-1" value="" style="shape=mxgraph.sysml.x;" vertex="1" parent="1">
          <mxGeometry x="-15" y="780" width="40" height="40" as="geometry" />
        </mxCell>
        <mxCell id="46k6uRibsO8c0PCUIlP4-4" value="" style="endArrow=none;dashed=1;html=1;dashPattern=1 3;strokeWidth=2;rounded=0;" edge="1" parent="1" target="46k6uRibsO8c0PCUIlP4-3">
          <mxGeometry width="50" height="50" relative="1" as="geometry">
            <mxPoint x="704.47" y="970" as="sourcePoint" />
            <mxPoint x="705" y="560" as="targetPoint" />
          </mxGeometry>
        </mxCell>
        <mxCell id="46k6uRibsO8c0PCUIlP4-3" value="" style="shape=mxgraph.sysml.x;" vertex="1" parent="1">
          <mxGeometry x="685" y="540" width="40" height="40" as="geometry" />
        </mxCell>
      </root>
    </mxGraphModel>
  </diagram>
</mxfile>
